<svg id="SvgjsSvg1031" width="288" height="288" xmlns="http://www.w3.org/2000/svg" version="1.1" xmlns:xlink="http://www.w3.org/1999/xlink" xmlns:svgjs="http://svgjs.com/svgjs"><defs id="SvgjsDefs1032"></defs><g id="SvgjsG1033"><svg xmlns="http://www.w3.org/2000/svg" data-name="Layer 1" viewBox="0 0 64 64" width="288" height="288"><path fill="#2d3142" d="M2.88,50.49l.01-.01,2.53-1.43.01-.01L9,46l4,3,4-3,3.57,3.04.01.01,2.53,1.43.01.01-1.36-1.73A5.993,5.993,0,0,1,20,44.51V33a4,4,0,0,0-4-4H10a4,4,0,0,0-4,4V44.51a5.993,5.993,0,0,1-1.76,4.25" class="color2d3142 svgShape"></path><path fill="#7ccdf4" d="M17,45c0,2.209-1.791,6-4,6s-4-3.791-4-6L6,47a4,4,0,0,0-4,4v4H24V51a4,4,0,0,0-4-4Z" class="color7ccdf4 svgShape"></path><path fill="#fec3a6" d="M19,37h0a4,4,0,0,0-4-4H13L7,37a2,2,0,0,0,0,4v.789a6,6,0,0,0,2.672,4.992L13,49l3.328-2.219A6,6,0,0,0,19,41.789V41a2,2,0,0,0,0-4Z" class="colorfec3a6 svgShape"></path><path fill="#2d3142" d="M40.88,50.49l.01-.01,2.53-1.43.01-.01L47,46l4,3,4-3,3.57,3.04.01.01,2.53,1.43.01.01-1.36-1.73A5.993,5.993,0,0,1,58,44.51V33a4,4,0,0,0-4-4H48a4,4,0,0,0-4,4V44.51a5.993,5.993,0,0,1-1.76,4.25" class="color2d3142 svgShape"></path><path fill="#7ccdf4" d="M55,45c0,2.209-1.791,6-4,6s-4-3.791-4-6l-3,2a4,4,0,0,0-4,4v4H62V51a4,4,0,0,0-4-4Z" class="color7ccdf4 svgShape"></path><path fill="#fec3a6" d="M57,37h0a4,4,0,0,0-4-4H51l-6,4a2,2,0,0,0,0,4v.789a6,6,0,0,0,2.672,4.992L51,49l3.328-2.219A6,6,0,0,0,57,41.789V41a2,2,0,0,0,0-4Z" class="colorfec3a6 svgShape"></path><path fill="#9b9c9b" d="M43,62H21V54a4,4,0,0,1,4-4h3l4,8,4-8h3a4,4,0,0,1,4,4Z" class="color9b9c9b svgShape"></path><path fill="#2d3142" d="M25,41.86V41a6,6,0,0,1,6-6h2a6,6,0,0,1,6,6v.86Z" class="color2d3142 svgShape"></path><path fill="#fec3a6" d="M38,41.6l-.771-1.517a2.046,2.046,0,0,0-3.212-.516l-.6.578a2.069,2.069,0,0,1-2.828,0l-.6-.578a2.046,2.046,0,0,0-3.212.516L26,41.6a1.967,1.967,0,1,0,0,3.933v.694a6,6,0,0,0,2.71,5.017l2.181,1.43a2.025,2.025,0,0,0,2.218,0l2.181-1.43A6,6,0,0,0,38,46.222v-.694A1.967,1.967,0,1,0,38,41.6Z" class="colorfec3a6 svgShape"></path><path fill="#4f5d75" d="M42,14V10H39.738a7.968,7.968,0,0,0-.852-2.058l1.6-1.6L37.657,3.515l-1.6,1.6A7.968,7.968,0,0,0,34,4.262V2H30V4.262a7.968,7.968,0,0,0-2.058.852l-1.6-1.6L23.515,6.343l1.6,1.6A7.968,7.968,0,0,0,24.262,10H22v4h2.262a7.968,7.968,0,0,0,.852,2.058l-1.6,1.6,2.828,2.828,1.6-1.6A7.968,7.968,0,0,0,30,19.738V22h4V19.738a7.968,7.968,0,0,0,2.058-.852l1.6,1.6,2.828-2.828-1.6-1.6A7.968,7.968,0,0,0,39.738,14Z" class="color4f5d75 svgShape"></path><circle cx="32" cy="12" r="3" fill="#ff9f1c" class="colorff9f1c svgShape"></circle><rect width="2" height="2" x="45" y="11" fill="#9b9c9b" class="color9b9c9b svgShape"></rect><rect width="2" height="2" x="49" y="11" fill="#9b9c9b" class="color9b9c9b svgShape"></rect><rect width="2" height="2" x="49" y="15" fill="#9b9c9b" class="color9b9c9b svgShape"></rect><rect width="2" height="2" x="49" y="19" fill="#9b9c9b" class="color9b9c9b svgShape"></rect><rect width="2" height="2" x="17" y="11" fill="#9b9c9b" class="color9b9c9b svgShape"></rect><rect width="2" height="2" x="13" y="11" fill="#9b9c9b" class="color9b9c9b svgShape"></rect><rect width="2" height="2" x="13" y="15" fill="#9b9c9b" class="color9b9c9b svgShape"></rect><rect width="2" height="2" x="13" y="19" fill="#9b9c9b" class="color9b9c9b svgShape"></rect><rect width="2" height="2" x="49" y="23" fill="#9b9c9b" class="color9b9c9b svgShape"></rect><rect width="2" height="2" x="13" y="23" fill="#9b9c9b" class="color9b9c9b svgShape"></rect></svg></g></svg>