<svg xmlns="http://www.w3.org/2000/svg" width="32" height="32" viewBox="0 0 32 32"><g transform="matrix(.8729 0 0 .87193 -400.051 -965.725)"><path fill="#ff5a67" stroke="#373748" stroke-width="1.146" d="m 480.91531,1111.5794 10.48034,0 c 1.11925,0 2.0203,0.901 2.0203,2.0203 l 0,5.0151 c 0,1.1192 -0.90105,2.0203 -2.0203,2.0203 l -6.57288,0 -2.25343,2.6201 -0.0947,-2.6201 -1.55933,0 c -1.11924,0 -2.0203,-0.9011 -2.0203,-2.0203 l 0,-5.0151 c 0,-1.1193 0.90106,-2.0203 2.0203,-2.0203 z"/><path fill="#00d1b6" stroke="#373748" stroke-width="1.146" d="m 471.28785,1116.3096 -6.40877,0 c -0.68442,0 -1.23542,0.551 -1.23542,1.2355 l 0,3.0667 c 0,0.6844 0.551,1.2354 1.23542,1.2354 l 4.01934,0 1.37798,1.6022 0.0579,-1.6022 0.95354,0 c 0.68442,0 1.23542,-0.551 1.23542,-1.2354 l 0,-3.0667 c 0,-0.6845 -0.551,-1.2355 -1.23542,-1.2355 z"/><g transform="translate(166.818 -2.357)"><path fill="#ff5a67" stroke="#373748" stroke-linecap="round" stroke-linejoin="round" stroke-width=".438" d="m 143.69972,1034.235 0,-0.2801 c 0,-0.2696 -0.20971,-0.5092 -0.44938,-0.6291 -0.98864,-0.5393 -2.10169,-1.0908 -2.10169,-1.0908 l -0.25541,-0.1262 c -0.15065,0.055 -0.29681,0.1272 -0.508,0.134 -0.24069,-0.018 -0.3525,-0.091 -0.52297,-0.1414 l -0.23584,0.1151 c -0.0899,0.06 -0.95869,0.4494 -2.24692,1.1684 -0.23967,0.1497 -0.32954,0.3895 -0.32954,0.6891 l 0,0.1778" transform="matrix(-2.61492 0 0 2.61492 685.942 -1562.571)"/><path fill="none" stroke="#373748" stroke-linecap="round" stroke-linejoin="round" stroke-width=".438" d="m 140.39216,1028.8209 c 0.63624,0 1.14843,0.5123 1.14843,1.1485 l 0,1.1245 c 0,0.6362 -0.65486,1.1484 -1.14843,1.1484 -0.49357,0 -1.14842,-0.5122 -1.14842,-1.1484 l 0,-1.1245 c 0,-0.6362 0.5122,-1.1485 1.14842,-1.1485 z m 0.75649,3.4141 -0.25541,-0.1262 c -0.15065,0.055 -0.29681,0.1272 -0.508,0.134 -0.24069,-0.018 -0.3525,-0.091 -0.52297,-0.1414 l -0.23584,0.1151" transform="matrix(-2.61492 0 0 2.61492 685.942 -1562.571)"/></g><g transform="translate(148.693 -2.357)"><path fill="#ff5a67" stroke="#373748" stroke-linecap="round" stroke-linejoin="round" stroke-width=".438" d="m 143.69972,1034.235 0,-0.2801 c 0,-0.2696 -0.20971,-0.5092 -0.44938,-0.6291 -0.98864,-0.5393 -2.10169,-1.0908 -2.10169,-1.0908 l -0.25541,-0.1262 c -0.15065,0.055 -0.29681,0.1272 -0.508,0.134 -0.24069,-0.018 -0.3525,-0.091 -0.52297,-0.1414 l -0.23584,0.1151 c -0.0899,0.06 -0.95869,0.4494 -2.24692,1.1684 -0.23967,0.1497 -0.32954,0.3895 -0.32954,0.6891 l 0,0.1778" transform="matrix(-2.61492 0 0 2.61492 685.942 -1562.571)"/><path fill="none" stroke="#373748" stroke-linecap="round" stroke-linejoin="round" stroke-width=".438" d="m 140.39216,1028.8209 c 0.63624,0 1.14843,0.5123 1.14843,1.1485 l 0,1.1245 c 0,0.6362 -0.65486,1.1484 -1.14843,1.1484 -0.49357,0 -1.14842,-0.5122 -1.14842,-1.1484 l 0,-1.1245 c 0,-0.6362 0.5122,-1.1485 1.14842,-1.1485 z m 0.75649,3.4141 -0.25541,-0.1262 c -0.15065,0.055 -0.29681,0.1272 -0.508,0.134 -0.24069,-0.018 -0.3525,-0.091 -0.52297,-0.1414 l -0.23584,0.1151" transform="matrix(-2.61492 0 0 2.61492 685.942 -1562.571)"/></g><path fill="#00d1b6" stroke="#373748" stroke-linecap="round" stroke-linejoin="round" stroke-width=".37" d="m 143.69972,1034.235 0,-0.2801 c 0,-0.2696 -0.20971,-0.5092 -0.44938,-0.6291 -0.98864,-0.5393 -2.10169,-1.0908 -2.10169,-1.0908 l -0.25541,-0.1262 c -0.15065,0.055 -0.29681,0.1272 -0.508,0.134 -0.24069,-0.018 -0.3525,-0.091 -0.52297,-0.1414 l -0.23584,0.1151 c -0.0899,0.06 -0.95869,0.4494 -2.24692,1.1684 -0.23967,0.1497 -0.32954,0.3895 -0.32954,0.6891 l 0,0.1778" transform="matrix(-3.09772 0 0 3.09772 911.66 -2064.324)"/><path fill="none" stroke="#373748" stroke-linecap="round" stroke-linejoin="round" stroke-width=".37" d="m 140.39216,1028.8209 c 0.63624,0 1.14843,0.5123 1.14843,1.1485 l 0,1.1245 c 0,0.6362 -0.65486,1.1484 -1.14843,1.1484 -0.49357,0 -1.14842,-0.5122 -1.14842,-1.1484 l 0,-1.1245 c 0,-0.6362 0.5122,-1.1485 1.14842,-1.1485 z m 0.75649,3.4141 -0.25541,-0.1262 c -0.15065,0.055 -0.29681,0.1272 -0.508,0.134 -0.24069,-0.018 -0.3525,-0.091 -0.52297,-0.1414 l -0.23584,0.1151" transform="matrix(-3.09772 0 0 3.09772 911.66 -2064.324)"/></g></svg>