<svg xmlns="http://www.w3.org/2000/svg" width="28" height="20" viewBox="0 0 720 480"><g transform="translate(30443.744 -8568.16)"><g transform="translate(0 996.422)"><path d="m -30383.744,8051.7383 c -33.102,0 -60,-26.8984 -60,-60 l 0,-360 c 0,-33.1016 26.898,-60 60,-60 l 600,0 c 33.101,0 60,26.8984 60,60 l 0,360 c 0,33.1016 -26.899,60 -60,60 l -600,0 z" style="line-height:normal;text-indent:0;text-align:start;text-decoration-line:none;text-decoration-style:solid;text-decoration-color:#000;text-transform:none;block-progression:tb;white-space:normal;isolation:auto;mix-blend-mode:normal;solid-color:#000;solid-opacity:1" fill="#3b3c3d" color="#000" enable-background="accumulate" font-family="sans-serif" font-weight="400" overflow="visible"/><path d="m -30383.744,8035.7383 600,0 c 24.514,0 44,-19.4856 44,-44 l 0,-360 c 0,-24.5144 -19.486,-44 -44,-44 l -600,0 c -24.515,0 -44,19.4856 -44,44 l 0,360 c 0,24.5144 19.485,44 44,44 z" style="line-height:normal;text-indent:0;text-align:start;text-decoration-line:none;text-decoration-style:solid;text-decoration-color:#000;text-transform:none;block-progression:tb;white-space:normal;isolation:auto;mix-blend-mode:normal;solid-color:#000;solid-opacity:1" fill="#ea6153" color="#000" enable-background="accumulate" font-family="sans-serif" font-weight="400" overflow="visible"/></g><path fill="#fad741" stroke-width="16" d="m 255.98878,677.47909 29.53139,90.76608 95.48379,0 -77.24293,56.1612 29.50103,90.8389 -77.27328,-56.1491 -77.24292,56.1491 29.53138,-90.8389 -77.27328,-56.1612 95.48379,0 z" transform="translate(-30339.744 8011.798)"/></g></svg>